<svg version="1.1" id="Layer_1" xmlns="http://www.w3.org/2000/svg" xmlns:xlink="http://www.w3.org/1999/xlink" x="0px" y="0px"
	 width="100%" viewBox="0 0 944 880" enable-background="new 0 0 944 880" xml:space="preserve">
<path fill="#2CFF05" opacity="1.000000" stroke="none" 
	d="
M548.705811,675.137634 
	C572.301208,681.565735 595.910156,685.771484 619.936035,686.335022 
	C639.229431,686.787598 658.511597,685.382324 677.639587,682.296204 
	C718.472961,675.708191 756.212891,660.782959 791.515198,639.644714 
	C812.117126,627.308716 831.041321,612.522827 849.413025,597.061890 
	C853.423279,593.687073 857.608948,590.523376 862.157104,587.930847 
	C863.882568,590.482422 862.638855,592.139404 862.048401,593.778687 
	C852.346863,620.715088 838.908081,645.784363 823.440918,669.768311 
	C804.571472,699.027893 782.193848,725.379944 756.772705,749.196777 
	C719.499817,784.117371 677.023621,810.809814 629.949524,830.411255 
	C592.778687,845.888977 554.056152,855.093140 514.086792,859.087769 
	C482.167267,862.277954 450.307129,861.394897 418.425476,857.539001 
	C368.209900,851.465820 320.813873,836.439697 276.487244,812.467224 
	C189.433350,765.387268 126.172127,696.267944 87.179459,605.101440 
	C79.304550,586.689575 72.979179,567.788147 67.627998,548.528259 
	C65.932617,542.426208 65.329643,542.198364 60.124187,545.883545 
	C52.441689,551.322327 52.458324,551.310242 46.996117,543.773682 
	C42.792858,537.974060 38.656734,532.119690 34.260487,526.468811 
	C32.157021,523.765015 32.251678,521.995911 35.050659,519.905212 
	C41.321514,515.221191 47.248802,510.062073 53.652729,505.577240 
	C57.201969,503.091583 58.156792,500.348480 57.522102,496.281403 
	C54.538383,477.161774 53.328312,457.913513 53.706753,438.562836 
	C54.605045,392.631531 62.447010,347.892303 77.687592,304.584473 
	C96.078407,252.324860 123.082451,204.901047 160.118210,163.554382 
	C202.300018,116.462669 252.092484,79.776543 310.859192,55.800018 
	C342.743561,42.791344 375.719543,33.840073 409.932709,29.517450 
	C415.711029,28.787397 421.427032,27.607100 427.285736,27.693596 
	C428.409241,27.710180 429.581116,27.618595 430.527985,28.476891 
	C430.140656,30.944592 428.124847,31.785707 426.653381,32.950466 
	C402.178162,52.324314 378.863251,72.965202 358.371246,96.579529 
	C337.146698,121.038063 320.255096,148.305908 307.347137,177.986938 
	C294.796265,206.846817 286.362518,236.829773 283.186218,268.245850 
	C282.198059,278.019470 281.128021,287.760162 281.147949,297.594452 
	C281.157562,302.333191 279.588867,305.950378 275.352356,308.901794 
	C267.297974,314.512970 259.728302,320.819061 251.941986,326.816681 
	C250.536880,327.898956 249.291992,329.434662 246.158493,328.655609 
	C241.741623,242.994965 263.396301,164.823242 313.852112,94.530426 
	C263.389435,116.079514 220.813354,147.900650 185.147873,189.113770 
	C102.346428,284.794739 83.089943,397.369537 90.945618,475.229340 
	C95.686455,473.196991 99.346260,469.823486 103.179535,466.866516 
	C148.294891,432.064880 193.349487,397.184387 238.390640,362.286621 
	C291.065887,321.473969 343.729645,280.646423 396.362671,239.779343 
	C419.128418,222.102814 441.863037,204.384766 464.460419,186.494354 
	C467.978516,183.709045 470.248840,183.635513 473.864197,186.456757 
	C528.242310,228.890854 582.743347,271.167511 637.233521,313.457977 
	C639.310974,315.070374 641.228333,316.972687 643.857117,317.901154 
	C645.502686,316.372284 644.856201,314.417206 644.858704,312.715973 
	C644.888733,292.383972 644.939697,272.050690 644.716797,251.720688 
	C644.669067,247.370102 646.005798,245.865097 650.402832,245.878723 
	C689.901794,246.001190 729.401306,245.946518 768.900696,245.966049 
	C774.629883,245.968887 774.502319,246.056900 774.481750,253.465973 
	C774.393250,285.296692 774.396118,317.127655 774.378296,348.958527 
	C774.366333,370.291779 774.499390,391.626282 774.277405,412.957245 
	C774.229065,417.599518 775.669434,420.740814 779.312744,423.552155 
	C810.045837,447.267212 840.686096,471.102692 871.346130,494.912415 
	C882.003845,503.188873 892.595154,511.551697 903.315369,519.746094 
	C905.902405,521.723511 906.049438,523.324829 904.109192,525.898865 
	C898.896057,532.814941 893.753052,539.797668 888.922791,546.982849 
	C886.423279,550.700989 884.400208,550.761414 880.989258,548.078796 
	C855.715454,528.202576 830.338440,508.457184 804.959656,488.714630 
	C784.708862,472.961182 764.461243,457.202423 744.084778,441.612579 
	C740.420288,438.808929 738.947876,435.746552 738.957764,431.089203 
	C739.058960,383.424316 738.947388,335.759003 738.894165,288.093781 
	C738.886597,281.329407 738.883789,281.321198 731.924683,281.318665 
	C716.758057,281.313110 701.588623,281.478546 686.426331,281.222290 
	C681.618347,281.141083 680.124512,282.673706 680.153442,287.487122 
	C680.348633,319.985901 680.283997,352.486267 680.303223,384.986115 
	C680.304321,386.796600 680.303345,388.607056 680.303345,390.262909 
	C677.618225,391.448822 676.469055,389.646851 675.126526,388.602356 
	C628.969727,352.693207 582.848083,316.738739 536.681641,280.841980 
	C515.770081,264.582214 494.696686,248.529404 473.890625,232.136597 
	C470.235443,229.256729 467.891022,229.561783 464.474976,232.272217 
	C445.811249,247.080780 427.054077,261.773895 408.200256,276.339966 
	C378.012268,299.662567 347.724792,322.856476 317.476013,346.100403 
	C308.360718,353.104858 299.271667,360.144379 290.090729,367.061890 
	C287.276703,369.182220 286.419586,371.273163 287.115204,375.068787 
	C300.469513,447.936737 331.907654,512.015991 380.627014,567.637329 
	C405.049988,595.520203 433.078003,619.369324 464.809326,638.531982 
	C490.975769,654.333984 518.693176,666.943909 548.705811,675.137634 
M298.815338,511.597870 
	C280.268280,476.563141 265.776733,439.986847 256.797638,401.303467 
	C255.499908,395.712738 254.503479,395.384521 249.972198,398.852631 
	C235.420425,409.990173 220.872803,421.133606 206.382050,432.350311 
	C171.476334,459.369446 136.651520,486.493530 101.654533,513.393738 
	C97.514984,516.575562 96.321846,519.632202 97.552574,524.748901 
	C103.291435,548.607788 111.386086,571.596436 120.991478,594.174744 
	C141.182587,641.635742 170.299225,682.905396 207.115646,718.694031 
	C233.884384,744.715576 264.154785,766.039246 297.343750,783.401001 
	C345.810120,808.754822 397.490814,821.971375 451.743622,825.467957 
	C476.015900,827.032410 500.371246,825.847961 524.503723,822.493652 
	C562.999634,817.142883 599.833923,806.137695 635.015259,789.502625 
	C680.031189,768.217285 719.078430,738.907837 753.012878,702.623352 
	C754.285889,701.262207 756.210205,700.133850 755.917114,697.519531 
	C752.314026,696.787354 749.468811,698.867065 746.469055,700.004150 
	C694.546326,719.685852 641.005798,726.353149 585.992859,718.898071 
	C546.125671,713.495483 508.195312,701.533264 472.189880,683.273865 
	C441.333893,667.625916 413.502075,647.819031 387.829803,624.817505 
	C351.721527,592.465576 322.911743,554.344727 298.815338,511.597870 
z"/>
</svg>